<?xml version="1.0" standalone="no"?>
<!DOCTYPE svg PUBLIC "-//W3C//DTD SVG 20010904//EN"
 "http://www.w3.org/TR/2001/REC-SVG-20010904/DTD/svg10.dtd">
<svg version="1.0" xmlns="http://www.w3.org/2000/svg"
 width="550.000000pt" height="550.000000pt" viewBox="0 0 550.000000 550.000000"
 preserveAspectRatio="xMidYMid meet">
<metadata>
Created by potrace 1.14, written by Peter Selinger 2001-2017
</metadata>
<g transform="translate(0.000000,550.000000) scale(0.100000,-0.100000)"
fill="#000000" stroke="none">
<path d="M1290 4994 c-72 -41 -78 -49 -70 -93 8 -45 11 -50 63 -119 33 -43 45
-53 64 -49 19 3 55 -18 42 -26 -2 -1 -30 -15 -61 -32 -33 -16 -88 -60 -129
-101 l-72 -73 -36 29 c-59 46 -152 80 -221 80 l-60 0 -30 -67 c-111 -243 -119
-496 -25 -744 44 -115 105 -232 153 -297 22 -29 43 -69 47 -89 6 -33 1 -44
-50 -120 -69 -101 -135 -160 -237 -214 -122 -63 -133 -98 -37 -118 79 -17 160
-14 204 9 21 11 40 18 42 17 6 -7 -90 -144 -129 -184 -40 -41 -40 -41 -18 -53
40 -21 177 -9 238 21 28 14 52 23 52 18 0 -21 -108 -97 -203 -142 -59 -28
-106 -55 -104 -61 5 -14 103 -46 175 -57 58 -8 108 -3 155 16 11 5 17 3 17 -6
0 -26 -47 -115 -94 -178 -39 -53 -57 -91 -43 -91 15 0 157 54 184 70 19 11 33
15 33 8 0 -6 -16 -44 -35 -84 -19 -40 -35 -77 -35 -83 0 -14 63 -14 112 -1 20
6 55 29 78 53 37 37 41 39 35 17 -10 -35 -51 -105 -85 -144 -16 -18 -27 -36
-23 -40 12 -12 134 -6 168 8 19 8 35 12 35 9 0 -3 -18 -32 -40 -65 -22 -33
-40 -64 -40 -69 0 -13 101 -11 141 3 78 27 249 146 249 174 0 8 14 40 30 71
25 46 30 66 27 105 -3 30 0 52 8 58 7 6 15 25 18 43 7 45 11 60 21 75 4 7 3
18 -2 25 -8 9 9 22 66 52 148 76 220 174 318 430 37 97 38 104 38 230 0 154
-17 230 -75 320 -67 106 -191 179 -401 236 l-122 34 45 8 c117 21 149 29 149
36 0 4 -28 3 -62 -1 -35 -4 -96 -10 -137 -14 l-73 -7 26 41 c16 25 22 43 15
47 -14 9 -34 -9 -81 -77 -43 -61 -53 -66 -83 -44 -18 13 -18 15 10 69 16 31
27 58 24 62 -12 11 -39 -8 -60 -41 -23 -39 -28 -39 -86 -16 -66 27 -135 129
-182 270 -26 75 -28 205 -6 278 20 63 100 163 177 219 81 60 109 59 170 -11
51 -58 44 -28 -12 53 -59 84 -59 93 0 127 l33 20 31 -40 c47 -60 129 -145 134
-140 2 3 -5 17 -17 32 -12 15 -18 31 -14 35 26 23 956 39 1203 19 69 -5 137
-10 153 -10 15 0 27 -4 27 -10 0 -6 -153 -8 -437 -4 -241 4 -541 3 -668 -2
l-230 -9 440 -7 c242 -4 514 -10 605 -12 91 -3 187 -6 213 -6 45 0 47 -1 37
-20 -24 -45 13 -16 76 60 l66 81 31 -18 c17 -10 32 -23 34 -29 2 -5 -21 -39
-52 -74 -30 -35 -55 -71 -55 -79 1 -10 17 2 43 31 52 59 77 68 142 52 l50 -12
-40 -2 -40 -2 44 -9 c100 -19 156 -77 186 -190 28 -104 9 -248 -49 -374 -28
-61 -142 -186 -200 -220 -81 -46 -81 -46 -122 44 -20 45 -43 81 -50 81 -22 0
-17 -16 30 -103 l45 -82 -55 -27 -54 -26 -23 41 c-12 23 -29 60 -38 82 -12 28
-19 36 -23 24 -4 -8 0 -32 9 -52 13 -32 13 -36 0 -31 -8 4 -21 1 -29 -5 -7 -6
-17 -7 -21 -3 -5 4 -5 1 -1 -6 4 -7 15 -12 24 -11 39 3 52 -3 67 -31 9 -16 11
-30 6 -30 -5 0 -16 -7 -25 -15 -8 -9 -57 -22 -108 -31 -114 -19 -183 -51 -249
-115 -85 -83 -128 -217 -116 -364 9 -105 82 -301 143 -381 22 -30 154 -138
217 -178 28 -17 28 -18 11 -37 -17 -19 -17 -21 0 -49 9 -17 14 -35 10 -41 -3
-6 -1 -15 6 -19 7 -4 14 -23 15 -41 2 -19 4 -34 5 -34 5 0 13 -78 12 -120 -1
-127 -10 -296 -14 -301 -3 -3 5 -17 18 -31 30 -33 31 -74 2 -107 -21 -23 -230
-154 -422 -265 -67 -38 -90 -46 -143 -49 -52 -4 -63 -2 -63 11 0 26 36 101 59
121 11 11 21 23 21 28 0 16 -41 -13 -49 -36 -5 -12 -17 -28 -27 -36 -16 -14
-17 -13 -12 13 3 15 2 27 -2 27 -8 0 -20 -60 -20 -101 l0 -27 -118 53 c-65 29
-150 64 -189 78 -199 72 -285 150 -271 248 3 16 1 29 -3 29 -14 0 -18 -31 -10
-74 6 -34 5 -46 -5 -50 -8 -3 -55 -90 -105 -193 -50 -103 -92 -190 -95 -192
-2 -2 -19 10 -38 27 -44 38 -111 61 -128 44 -17 -17 13 -73 75 -139 l49 -52
-17 -73 c-26 -113 -13 -251 31 -335 18 -35 45 -78 59 -95 25 -30 26 -36 20
-97 -4 -36 -27 -128 -51 -204 -24 -75 -44 -144 -44 -152 0 -8 -16 -54 -36
-102 -43 -102 -95 -275 -82 -271 5 2 26 55 48 118 22 63 43 117 48 122 4 4 6
-50 5 -120 -3 -177 13 -124 20 68 6 155 29 276 71 371 l14 34 1 -35 c0 -19
-10 -86 -23 -148 -13 -62 -20 -115 -15 -118 5 -3 12 13 15 36 9 56 24 50 24
-9 0 -52 7 -81 19 -81 4 0 4 25 0 57 -4 31 -4 129 1 217 5 89 9 182 10 209 0
26 3 47 8 47 4 0 45 -34 92 -76 98 -86 218 -168 324 -221 74 -36 74 -37 62
-62 -34 -66 -26 -141 14 -141 11 0 20 -4 20 -10 0 -14 -44 -146 -68 -207 -15
-37 -18 -53 -9 -53 11 0 71 148 79 195 3 13 11 19 23 18 11 -1 34 2 51 6 28 8
33 6 43 -15 13 -29 64 -33 93 -8 12 12 21 14 30 6 7 -5 24 -12 37 -14 19 -2
29 -18 56 -91 36 -96 39 -101 54 -96 5 2 -8 42 -30 88 -21 46 -39 85 -39 87 0
2 15 4 33 4 18 0 38 5 45 12 9 9 21 4 51 -20 53 -42 81 -52 123 -43 119 27
141 129 52 246 -32 42 -27 58 25 84 58 30 155 114 191 165 31 46 123 306 136
384 4 24 13 46 20 49 27 10 7 246 -25 301 -14 23 -13 9 3 -73 13 -61 20 -134
17 -172 -2 -23 -66 -35 -138 -24 -282 41 -286 41 -341 31 -31 -5 -60 -10 -65
-10 -17 0 1 250 24 330 20 73 19 108 -1 54 -25 -65 -39 -156 -42 -274 l-3
-125 27 -3 27 -3 -33 -93 c-61 -169 -97 -225 -158 -249 -31 -13 -40 -13 -63
-1 -23 12 -21 7 14 -33 23 -25 41 -49 41 -54 0 -11 -81 -66 -155 -106 l-60
-32 -42 47 c-56 61 -86 126 -87 184 -1 57 22 86 78 95 41 6 98 -18 149 -65 15
-14 27 -21 27 -16 0 5 -18 25 -39 44 -22 18 -38 37 -35 41 4 8 11 36 38 168
26 126 41 120 56 -20 12 -112 41 -259 51 -253 4 2 3 22 -2 44 -8 37 -39 278
-39 306 0 7 31 22 70 33 57 18 70 25 70 42 0 20 -4 21 -47 14 -27 -3 -58 -9
-70 -12 -18 -4 -23 -1 -23 16 0 12 5 21 11 21 6 0 33 10 60 21 35 15 51 29 55
46 10 37 -6 45 -55 28 -67 -23 -71 -21 -71 34 l0 48 48 6 c85 11 122 26 122
49 0 20 -4 20 -60 15 -33 -4 -72 -10 -85 -13 -24 -6 -25 -4 -25 40 l0 46 48 0
c72 0 111 15 229 86 59 37 158 96 218 132 61 36 125 78 144 93 l34 28 37 -19
c75 -38 125 -123 194 -332 24 -73 52 -167 61 -208 9 -41 29 -129 45 -195 42
-177 56 -255 90 -510 38 -279 46 -358 55 -498 4 -59 11 -107 16 -107 6 0 7 39
3 95 l-7 95 83 -50 c117 -69 241 -95 367 -76 46 7 55 5 92 -20 23 -14 41 -31
41 -35 0 -5 5 -9 11 -9 5 0 7 5 3 12 -5 8 -2 9 10 5 41 -16 123 -18 174 -4 47
13 51 13 40 -2 -7 -9 5 0 28 19 23 19 65 53 95 76 33 25 62 57 76 85 24 48 46
161 36 186 -4 10 -2 14 4 10 6 -4 13 3 16 14 4 13 10 18 18 13 14 -8 246 226
315 317 157 208 230 322 259 400 15 42 33 69 73 104 50 45 70 52 35 12 -16
-18 -13 -18 26 4 95 53 171 170 191 295 12 77 3 295 -11 272 -7 -10 -9 -9 -9
4 0 10 -3 17 -7 17 -20 -3 -21 3 -6 21 10 11 24 21 33 21 8 1 -1 5 -20 9 l-35
7 39 2 c54 1 38 13 -18 13 -28 0 -46 4 -47 11 -3 29 4 82 10 87 17 12 73 169
78 217 5 49 4 53 -15 53 -11 0 -24 -4 -27 -10 -14 -23 -22 -7 -18 34 7 61 -10
67 -56 17 -21 -23 -41 -41 -44 -41 -3 0 5 32 19 72 13 39 24 79 24 89 0 26
-24 30 -57 9 l-30 -18 30 87 c33 96 46 196 28 229 -17 32 -38 17 -72 -50 -17
-33 -32 -58 -34 -56 -2 1 3 28 12 58 19 74 30 220 15 220 -6 0 -23 -17 -37
-37 l-25 -38 0 52 c0 56 -10 71 -33 49 -17 -18 -27 -11 -27 20 0 42 -30 37
-75 -12 -51 -55 -48 -57 -90 79 -24 81 -51 127 -73 127 -5 0 -19 -12 -33 -26
l-24 -26 -5 34 c-5 31 -8 33 -45 34 -22 0 -49 5 -59 9 -32 14 -85 -25 -159
-116 -37 -46 -70 -83 -75 -82 -4 1 -12 21 -17 44 -22 91 -61 44 -78 -96 l-13
-97 -49 65 c-49 64 -71 84 -84 71 -13 -13 -2 -103 22 -179 14 -44 29 -97 33
-119 6 -36 5 -38 -15 -31 -26 8 -26 8 2 -51 19 -42 22 -64 21 -162 -2 -116 -6
-134 -26 -114 -7 7 -15 12 -19 12 -4 0 -6 -48 -6 -107 2 -101 1 -108 -18 -108
-11 0 -21 -7 -22 -15 -1 -8 -4 -36 -8 -62 -5 -39 -10 -47 -32 -53 -31 -7 -117
-93 -161 -159 -36 -55 -42 -44 -12 24 15 34 16 40 4 25 -22 -27 -44 -80 -44
-104 0 -11 -18 -41 -40 -66 -79 -92 -121 -211 -95 -273 7 -16 20 -32 29 -35
16 -6 16 -5 1 15 -8 13 -15 38 -14 58 l1 35 9 -32 c10 -35 47 -96 75 -125 10
-10 15 -21 11 -24 -4 -4 16 -33 44 -65 l50 -58 -15 -52 c-9 -28 -33 -72 -53
-98 -21 -25 -37 -48 -36 -51 1 -3 -38 -5 -85 -6 -65 -1 -102 -7 -147 -24 -60
-22 -105 -54 -105 -73 0 -6 10 -1 23 11 46 43 35 21 -13 -28 -44 -43 -50 -54
-50 -91 l0 -41 -37 8 c-21 5 -55 8 -75 8 -41 0 -42 1 -53 76 -26 170 -119 593
-150 685 -71 210 -106 267 -205 340 -31 23 -50 45 -53 62 -7 38 -3 40 33 9 42
-35 60 -38 193 -34 96 2 118 6 136 22 30 27 26 43 -16 65 l-38 20 85 1 c148 1
288 46 358 116 65 64 57 76 -58 92 -91 13 -200 51 -200 70 0 5 32 12 70 15
107 9 237 52 277 92 48 48 44 61 -23 69 -60 7 -157 51 -188 85 l-19 21 84 0
c110 0 155 14 202 61 49 49 46 71 -12 81 -65 11 -121 42 -174 96 l-49 49 46 7
c69 11 163 85 198 156 15 30 28 60 28 66 0 7 -34 11 -102 10 -74 -1 -111 3
-132 14 -42 21 -42 34 1 49 51 18 107 64 143 116 37 54 40 80 7 68 -12 -4 -56
-8 -97 -8 l-75 0 -6 125 c-4 69 -12 148 -17 175 -10 47 -9 52 17 85 58 73 160
257 182 330 20 64 24 97 24 222 0 195 9 186 -172 170 -75 -6 -139 -9 -142 -7
-2 3 -17 33 -31 66 -31 70 -89 143 -128 162 -15 8 -55 20 -89 27 -60 12 -77
30 -29 30 38 0 127 109 128 158 2 67 -36 102 -111 102 -40 0 -91 -17 -91 -30
0 -4 -18 -34 -40 -66 -26 -38 -36 -62 -30 -69 6 -8 0 -23 -18 -44 l-27 -33
-145 11 c-310 22 -493 24 -895 6 l-400 -17 -42 47 c-25 27 -43 57 -43 70 0 24
-25 60 -89 128 -42 45 -68 47 -131 11z m-393 -473 c91 -66 162 -173 180 -276
7 -38 16 -84 19 -101 5 -23 -1 -42 -25 -81 -62 -101 -95 -242 -107 -455 l-7
-127 -50 71 c-58 83 -129 257 -158 388 -34 153 -20 345 36 509 38 113 47 119
112 72z m2893 -188 c0 -27 -7 -102 -15 -168 -14 -112 -18 -127 -70 -230 -31
-60 -72 -132 -91 -159 l-36 -48 -35 78 c-19 44 -36 87 -36 96 -1 9 -4 15 -8
12 -4 -2 -18 13 -30 33 -13 21 -29 42 -36 46 -15 9 -17 30 -4 55 9 18 20 54
41 135 9 35 24 57 53 82 53 45 193 113 235 114 32 1 32 1 32 -46z m-2066
-1096 c10 -7 17 -22 15 -32 -4 -18 -8 -21 -60 -45 -14 -6 -34 -27 -43 -46 -18
-40 -40 -52 -61 -34 -37 31 0 117 65 151 41 22 60 24 84 6z m1304 -59 c3 -23
-2 -30 -31 -42 -27 -11 -37 -23 -48 -57 -21 -66 -79 -64 -79 3 0 67 60 131
119 126 31 -3 36 -7 39 -30z m-1500 -239 c7 -10 38 -27 70 -39 73 -28 155 -23
232 13 115 53 127 43 36 -32 l-53 -44 -93 2 c-83 2 -99 6 -149 33 -55 31 -111
75 -111 88 0 14 55 -4 68 -21z m1739 -13 c-5 -47 -19 -62 -99 -102 -72 -36
-115 -39 -212 -13 -82 22 -135 68 -116 100 7 11 16 7 42 -18 56 -54 190 -71
261 -33 21 11 43 17 50 14 7 -4 9 -3 4 1 -5 7 59 84 71 85 1 0 1 -15 -1 -34z
m-335 -849 c1 -26 -2 -51 -7 -56 -7 -6 -10 13 -10 54 0 72 14 74 17 2z m1224
-113 c-3 -9 -6 -19 -6 -24 0 -5 -8 -11 -17 -13 -13 -3 -10 -5 7 -6 l25 -2 -25
-10 c-14 -6 -26 -6 -28 -1 -1 5 -15 7 -30 5 -26 -4 -26 -3 12 31 41 38 73 48
62 20z m-6 -84 c-24 -15 -37 -11 -16 5 11 8 22 12 25 9 3 -3 -1 -9 -9 -14z
m-93 -37 c-47 -48 -59 -37 -12 12 19 21 38 35 42 31 4 -4 -9 -23 -30 -43z
m1318 27 c3 -5 1 -10 -4 -10 -6 0 -11 5 -11 10 0 6 2 10 4 10 3 0 8 -4 11 -10z
m-58 -62 c-3 -7 -5 -2 -5 12 0 14 2 19 5 13 2 -7 2 -19 0 -25z m-3610 -28 c43
-38 112 -73 239 -121 55 -21 140 -56 187 -78 l87 -40 0 -50 c0 -55 0 -55 -95
-63 -37 -4 -46 -33 -13 -42 13 -3 42 -6 66 -6 l42 0 0 -49 c0 -28 -4 -52 -9
-55 -5 -4 -44 -9 -86 -13 -62 -5 -75 -9 -73 -22 4 -19 59 -40 111 -40 29 -1
37 -5 37 -20 0 -16 -10 -20 -63 -25 -72 -8 -92 -18 -84 -40 5 -12 21 -16 72
-16 46 0 65 -4 65 -12 -1 -7 -11 -62 -24 -123 -17 -83 -26 -109 -37 -106 -8 2
-30 6 -49 9 -63 8 -210 136 -210 183 0 18 6 30 18 33 9 3 32 20 50 36 40 39
41 67 6 186 -30 99 -44 258 -25 277 13 13 15 77 1 77 -10 0 -16 -31 -25 -130
-6 -66 2 -118 45 -280 10 -41 16 -78 11 -83 -4 -4 -27 1 -52 12 -32 15 -66 21
-124 21 l-80 0 -116 116 -117 116 65 137 c72 150 123 241 137 241 4 0 24 -14
43 -30z m2377 -5 c-9 -14 -19 -23 -22 -20 -5 4 26 45 35 45 2 0 -4 -11 -13
-25z m1256 -22 c0 -29 -12 -63 -21 -63 -10 0 -12 41 -3 64 8 21 24 20 24 -1z
m47 -20 c-3 -10 -5 -4 -5 12 0 17 2 24 5 18 2 -7 2 -21 0 -30z m-106 -56 c-8
-8 -11 -7 -11 4 0 20 13 34 18 19 3 -7 -1 -17 -7 -23z m110 0 c-8 -8 -11 -7
-11 4 0 20 13 34 18 19 3 -7 -1 -17 -7 -23z m-1491 -7 c-6 -11 -16 -20 -22
-20 -6 0 -3 9 7 20 10 11 20 20 22 20 2 0 -1 -9 -7 -20z m-2517 -195 c10 -7
155 -148 321 -313 l302 -299 -22 -27 c-13 -14 -28 -26 -34 -26 -20 0 -121 98
-345 335 -120 127 -221 232 -225 235 -14 10 -80 102 -80 112 0 12 58 0 83 -17z
m2592 -85 c3 -5 1 -10 -4 -10 -6 0 -11 5 -11 10 0 6 2 10 4 10 3 0 8 -4 11
-10z m1225 -70 c-20 -13 -43 -13 -35 0 3 6 16 10 28 10 18 0 19 -2 7 -10z
m-1232 -40 c32 -39 40 -60 23 -60 -10 0 -71 79 -71 92 0 17 16 6 48 -32z
m-2431 -94 c-1 -4 -29 -16 -60 -26 -32 -10 -64 -24 -73 -30 -8 -7 -17 -11 -19
-8 -6 6 21 163 30 178 8 13 127 -98 122 -114z m3639 99 c-11 -8 -25 -15 -30
-15 -6 0 -2 7 8 15 11 8 25 15 30 15 6 0 2 -7 -8 -15z m-26 -50 c-7 -9 -15
-13 -19 -10 -3 3 1 10 9 15 21 14 24 12 10 -5z m-3220 -92 c0 -2 -12 -15 -27
-29 l-28 -26 -9 37 c-10 46 6 61 41 38 13 -8 23 -17 23 -20z m1919 -187 c-3
-3 -25 -9 -49 -15 -40 -9 -43 -8 -26 5 17 12 87 21 75 10z m-265 -101 c-4 -8
-10 -12 -15 -9 -9 5 -13 -13 -11 -56 1 -23 1 -23 -8 -5 -8 19 -9 19 -9 -2 -1
-33 -21 -28 -21 5 1 36 26 66 67 81 1 1 0 -6 -3 -14z m-942 -482 c49 -66 58
-86 58 -128 0 -24 -8 -43 -24 -60 -26 -26 -89 -47 -114 -38 -28 10 -90 62
-112 94 l-21 29 45 58 c82 107 114 115 168 45z m1803 -88 c-15 -25 -29 -45
-32 -45 -12 0 10 77 30 105 21 28 22 29 25 8 2 -12 -9 -43 -23 -68z m-45 12
c0 -2 -12 -14 -27 -28 -20 -18 -24 -19 -13 -4 18 24 40 42 40 32z m-45 -97
c-20 -22 -44 -28 -26 -7 6 8 8 17 4 21 -4 4 -1 11 7 16 25 15 36 -7 15 -30z
m65 1 c0 -6 -12 -23 -26 -38 -25 -28 -23 -19 6 25 16 24 20 27 20 13z m-97
-86 c-5 -14 -72 -55 -89 -55 -5 0 85 67 93 69 1 1 0 -6 -4 -14z m-143 -25 c-8
-5 -22 -9 -30 -9 -10 0 -8 3 5 9 27 12 43 12 25 0z m-96 -16 c25 -10 19 -24
-11 -24 -23 0 -25 -2 -13 -11 11 -7 6 -8 -20 -3 -35 6 -90 31 -90 39 0 7 116
6 134 -1z"/>
<path d="M991 4114 c0 -11 3 -14 6 -6 3 7 2 16 -1 19 -3 4 -6 -2 -5 -13z"/>
<path d="M1035 4110 c3 -5 8 -10 11 -10 2 0 4 5 4 10 0 6 -5 10 -11 10 -5 0
-7 -4 -4 -10z"/>
<path d="M3488 4010 c-33 -34 -38 -52 -7 -24 18 16 45 55 37 54 -2 -1 -15 -14
-30 -30z"/>
<path d="M3501 3987 l-25 -32 32 29 c33 31 37 36 25 35 -5 0 -19 -14 -32 -32z"/>
<path d="M3545 3992 c-5 -4 -17 -16 -25 -27 l-15 -20 24 20 c17 14 23 16 19 5
-2 -8 -15 -20 -27 -26 -18 -9 -19 -13 -7 -17 21 -8 46 19 46 49 0 26 -1 27
-15 16z"/>
<path d="M3589 3955 c-1 -3 -2 -10 -3 -16 0 -6 -10 -17 -20 -25 -11 -8 -16
-14 -10 -14 5 0 2 -5 -6 -11 -12 -8 -11 -9 5 -7 26 4 44 29 42 56 -1 21 -5 29
-8 17z"/>
<path d="M1795 2869 c-22 -10 -29 -16 -16 -13 13 3 30 7 37 8 16 2 43 26 29
25 -6 0 -28 -9 -50 -20z"/>
<path d="M3198 4663 c7 -3 16 -2 19 1 4 3 -2 6 -13 5 -11 0 -14 -3 -6 -6z"/>
<path d="M1286 4442 c-13 -26 -40 -100 -61 -164 -34 -110 -36 -118 -21 -146
17 -32 124 -132 175 -163 27 -16 46 -17 190 -12 106 4 161 10 161 17 0 6 4 5
9 -3 7 -11 17 -12 43 -5 27 8 33 14 31 34 -2 22 -2 23 6 5 5 -11 6 -24 4 -28
-6 -11 226 2 247 13 10 5 20 7 23 3 10 -9 227 209 227 227 0 16 -103 144 -147
183 -30 26 -158 47 -353 57 -96 6 -231 14 -300 20 -214 16 -206 18 -234 -38z
m791 -399 c-2 -16 -4 -5 -4 22 0 28 2 40 4 28 2 -13 2 -35 0 -50z m-110 5 c-3
-7 -5 -2 -5 12 0 14 2 19 5 13 2 -7 2 -19 0 -25z m160 10 c-3 -8 -6 -5 -6 6
-1 11 2 17 5 13 3 -3 4 -12 1 -19z"/>
<path d="M2955 4469 c-66 -4 -174 -12 -240 -18 -66 -6 -134 -11 -152 -11 -26
0 -37 -8 -60 -41 -15 -23 -47 -66 -71 -95 -77 -98 -79 -87 39 -213 68 -71 106
-105 111 -98 5 7 8 3 8 -10 0 -28 36 -32 56 -5 8 10 13 12 14 5 0 -19 21 -16
36 5 13 16 14 16 7 -2 -5 -16 -3 -18 18 -13 13 4 30 7 37 7 7 0 17 10 22 23 7
17 9 18 9 5 1 -14 10 -18 44 -18 23 0 62 5 87 11 64 15 83 18 195 25 55 4 105
9 111 13 6 3 47 43 89 89 l79 84 -27 81 c-15 45 -41 106 -57 135 l-30 52 -103
-2 c-56 0 -156 -5 -222 -9z"/>
<path d="M2190 3929 c0 -5 14 -9 30 -9 17 0 30 4 30 8 0 5 -13 9 -30 10 -16 0
-30 -4 -30 -9z"/>
<path d="M2260 3930 c0 -5 5 -11 10 -11 6 -1 18 -2 28 -4 9 -1 25 -5 35 -9 9
-5 24 -6 32 -2 8 3 15 1 15 -4 0 -6 6 -10 14 -10 7 0 27 -7 42 -15 34 -17 54
-19 54 -5 0 6 -9 10 -20 10 -32 0 -34 1 -54 18 -10 9 -21 16 -25 16 -3 -1 -17
3 -31 8 -13 5 -32 7 -42 5 -10 -3 -18 -1 -18 4 0 5 -9 9 -20 9 -11 0 -20 -4
-20 -10z"/>
<path d="M2130 3920 c0 -5 12 -10 26 -10 14 0 23 4 19 10 -3 6 -15 10 -26 10
-10 0 -19 -4 -19 -10z"/>
<path d="M2050 3911 c0 -5 -9 -7 -20 -4 -11 3 -20 1 -20 -5 0 -9 16 -9 73 -3
17 2 5 21 -13 21 -11 0 -20 -4 -20 -9z"/>
<path d="M1985 3895 c-5 -2 -23 -6 -38 -9 -15 -4 -25 -11 -22 -16 7 -11 54 -3
69 11 11 10 6 18 -9 14z"/>
<path d="M1846 3857 c-16 -12 -15 -13 11 -11 46 2 49 4 33 14 -20 13 -23 12
-44 -3z"/>
<path d="M2500 3859 c0 -6 7 -9 15 -6 8 4 17 2 20 -3 6 -9 31 -8 41 3 4 4 1 7
-7 8 -8 0 -26 3 -41 5 -17 3 -28 0 -28 -7z"/>
<path d="M2630 3831 c0 -6 9 -8 20 -6 11 2 20 -1 20 -6 0 -6 5 -7 11 -4 14 9
7 15 -25 21 -14 2 -26 0 -26 -5z"/>
<path d="M2770 3810 c0 -9 58 -11 63 -3 3 5 -10 8 -29 9 -19 0 -34 -2 -34 -6z"/>
<path d="M2203 2594 c-76 -37 -114 -99 -81 -132 7 -7 21 -12 33 -12 11 0 33
-13 48 -29 46 -50 175 -65 208 -25 6 8 27 14 46 14 70 0 97 42 67 106 -21 43
-54 67 -123 88 -77 23 -137 20 -198 -10z m221 -60 c16 -16 22 -54 9 -54 -5 0
-17 7 -27 15 -11 8 -29 15 -40 15 -28 0 -50 15 -42 29 11 17 82 13 100 -5z"/>
<path d="M2527 2286 c-40 -36 -173 -86 -227 -86 -37 0 -42 -27 -6 -36 82 -20
296 79 296 137 0 28 -20 23 -63 -15z"/>
<path d="M1724 2159 c-11 -18 -7 -70 6 -83 8 -8 10 3 8 41 -3 58 -4 58 -14 42z"/>
<path d="M1720 2037 c0 -16 -8 -28 -25 -35 -14 -6 -25 -16 -25 -22 0 -7 6 -7
18 0 9 5 33 14 52 19 19 5 27 10 18 10 -11 1 -18 9 -18 20 0 11 -4 23 -10 26
-6 3 -10 -4 -10 -18z"/>
<path d="M2770 1960 c-30 -26 -22 -34 10 -10 14 10 22 21 19 24 -3 4 -16 -3
-29 -14z"/>
<path d="M1890 1950 c0 -5 5 -10 11 -10 5 0 7 5 4 10 -3 6 -8 10 -11 10 -2 0
-4 -4 -4 -10z"/>
<path d="M1064 1898 c-1 -24 -5 -71 -9 -105 -8 -66 -1 -86 48 -140 36 -40 38
-13 2 30 -39 45 -44 82 -24 162 11 44 6 95 -9 95 -4 0 -8 -19 -8 -42z"/>
<path d="M2706 1913 c-6 -14 -5 -15 5 -6 7 7 10 15 7 18 -3 3 -9 -2 -12 -12z"/>
<path d="M1960 1904 c0 -4 56 -34 65 -34 4 0 0 6 -7 13 -12 13 -58 29 -58 21z"/>
<path d="M2656 1884 c-20 -19 -20 -25 -2 -18 8 3 17 12 20 20 7 18 1 18 -18
-2z"/>
<path d="M1196 1873 c4 -10 7 -48 5 -85 -3 -76 10 -108 42 -108 l22 0 -23 18
c-20 16 -22 25 -20 92 2 75 -4 100 -24 100 -6 0 -7 -7 -2 -17z"/>
<path d="M2050 1851 c0 -5 8 -11 18 -14 9 -3 46 -22 81 -43 35 -20 62 -31 59
-23 -7 21 -158 98 -158 80z"/>
<path d="M2560 1829 c-30 -17 -57 -35 -59 -41 -2 -6 24 4 58 23 33 18 61 37
61 41 0 10 4 12 -60 -23z"/>
<path d="M2430 1760 c0 -5 -6 -10 -14 -10 -8 0 -18 -4 -21 -10 -10 -17 11 -11
36 10 13 10 18 19 12 20 -7 0 -13 -4 -13 -10z"/>
<path d="M956 1695 c11 -115 11 -116 99 -201 46 -45 86 -79 89 -76 11 10 -16
42 -72 87 -69 56 -92 95 -92 155 0 26 -6 55 -14 65 -13 18 -14 14 -10 -30z"/>
<path d="M2246 1727 c3 -10 9 -15 12 -12 3 3 0 11 -7 18 -10 9 -11 8 -5 -6z"/>
<path d="M3031 706 c-6 -7 -14 -43 -18 -79 -5 -59 -4 -66 16 -76 21 -12 29
-41 11 -41 -5 0 -10 4 -10 10 0 22 -42 33 -82 21 -31 -10 -40 -18 -45 -43 -6
-29 -8 -30 -44 -25 -28 4 -39 1 -39 -8 0 -23 90 -28 191 -10 139 25 129 28
151 -35 22 -65 39 -215 32 -279 -7 -62 -32 -117 -58 -129 -19 -10 -18 -11 12
-11 30 -1 35 3 52 42 38 88 34 251 -11 387 -12 36 -23 71 -25 78 -3 8 -11 11
-24 7 -19 -6 -20 -2 -20 75 0 57 -5 88 -16 105 -18 28 -55 33 -73 11z m24 -75
c-4 -34 -12 -61 -17 -61 -11 0 -5 100 7 120 13 22 17 0 10 -59z m43 -48 c-2
-50 -7 -78 -15 -81 -15 -4 -17 31 -6 128 9 87 25 53 21 -47z m-98 -78 c14 -16
9 -20 -42 -28 -32 -5 -39 16 -10 32 24 14 38 13 52 -4z"/>
<path d="M2824 425 c-11 -27 36 -276 62 -335 35 -76 50 -90 98 -90 l41 0 -35
18 c-43 21 -76 70 -94 136 -18 66 -51 248 -48 263 4 19 -18 26 -24 8z"/>
<path d="M2903 363 c-13 -2 -23 -8 -23 -13 0 -5 13 -7 29 -4 28 6 30 3 40 -32
5 -22 11 -61 13 -89 3 -47 1 -50 -19 -48 -13 2 -23 -1 -23 -6 0 -15 31 -21 51
-10 18 9 19 17 13 67 -10 82 -28 137 -44 138 -8 1 -25 -1 -37 -3z"/>
<path d="M3100 330 c0 -6 -9 -10 -20 -10 -11 0 -20 -7 -20 -15 0 -8 -4 -15
-10 -15 -5 0 -10 5 -10 10 0 6 -9 10 -20 10 -15 0 -20 -7 -20 -26 0 -24 3 -26
29 -21 28 6 30 4 36 -33 9 -53 29 -53 22 0 -3 22 -2 40 3 40 4 0 10 -18 14
-40 3 -22 11 -40 17 -40 7 0 8 14 4 39 -7 40 10 91 24 75 5 -5 5 -49 0 -99 -7
-86 -6 -105 6 -93 6 6 25 211 21 216 -9 8 -76 10 -76 2z"/>
</g>
</svg>
